<svg id="Capa_1" enable-background="new 0 0 496.954 496.954" height="512" viewBox="0 0 496.954 496.954" width="512" xmlns="http://www.w3.org/2000/svg"><g><path d="m226.598 175.71-5.103-5.103c-7.6-7.6-17.908-11.87-28.656-11.87h-104.691c-24.229 0-45.666 15.699-52.978 38.799h-27.744c-4.101 0-7.426 3.325-7.426 7.426v16.193c0 3.47 2.403 6.477 5.787 7.243l29.383 6.648 6.288 28.342c9.699 43.718 48.468 74.829 93.249 74.829h2.245c52.752 0 95.516-42.764 95.516-95.516v-18.592c0-8.842 7.167-16.009 16.009-16.009 8.842 0 16.009 7.167 16.009 16.009v18.591c0 52.752 42.764 95.516 95.516 95.516h2.245c44.781 0 83.55-31.111 93.249-74.829l6.288-28.342 29.383-6.648c3.384-.766 5.787-3.773 5.787-7.243v-16.193c0-4.101-3.325-7.426-7.426-7.426h-27.744c-7.312-23.1-28.748-38.799-52.978-38.799h-104.691c-10.748 0-21.056 4.27-28.656 11.87l-5.103 5.103c-1.464 1.464-3.451 2.287-5.522 2.287h-32.714c-2.071.001-4.058-.822-5.522-2.286z" fill="#fdb441"/><g><path d="m193.974 188.737h-105.823c-11.149 0-21.014 7.224-24.379 17.853-1.612 5.091-1.852 10.518-.695 15.732l7.67 34.568c3.217 14.503 11.37 27.611 22.956 36.909 11.587 9.297 26.148 14.418 41.004 14.418h2.245c36.184 0 65.517-29.333 65.517-65.517v-45.469c-.001-4.691-3.804-8.494-8.495-8.494z" fill="#a6e7f0"/><path d="m294.486 197.231v45.469c0 36.184 29.333 65.517 65.517 65.517h2.245c14.855 0 29.417-5.121 41.004-14.418 11.586-9.298 19.739-22.405 22.956-36.909l7.67-34.568c1.157-5.214.917-10.64-.695-15.732-3.365-10.629-13.23-17.853-24.379-17.853h-105.824c-4.691 0-8.494 3.803-8.494 8.494z" fill="#a6e7f0"/><g><path d="m97.437 250.752c-1.648 0-3.308-.541-4.693-1.654-3.229-2.595-3.742-7.315-1.148-10.544l26.008-32.365c2.595-3.229 7.315-3.744 10.545-1.148 3.229 2.595 3.742 7.315 1.148 10.544l-26.008 32.365c-1.482 1.843-3.658 2.802-5.852 2.802z" fill="#d4f2f6"/></g><g><path d="m129.353 259.581c-1.648 0-3.308-.541-4.693-1.654-3.229-2.594-3.743-7.315-1.148-10.544l14.19-17.659c2.595-3.229 7.315-3.743 10.545-1.148 3.229 2.594 3.743 7.315 1.148 10.544l-14.19 17.659c-1.482 1.843-3.658 2.802-5.852 2.802z" fill="#d4f2f6"/></g><g><path d="m326.884 250.752c-1.648 0-3.308-.541-4.693-1.654-3.229-2.595-3.742-7.315-1.148-10.544l26.008-32.365c2.595-3.229 7.314-3.744 10.545-1.148 3.229 2.595 3.742 7.315 1.148 10.544l-26.008 32.365c-1.482 1.843-3.658 2.802-5.852 2.802z" fill="#d4f2f6"/></g><g><path d="m358.8 259.581c-1.648 0-3.308-.541-4.693-1.654-3.229-2.594-3.743-7.315-1.148-10.544l14.19-17.659c2.595-3.229 7.315-3.743 10.545-1.148 3.229 2.594 3.743 7.315 1.148 10.544l-14.19 17.659c-1.482 1.843-3.658 2.802-5.852 2.802z" fill="#d4f2f6"/></g></g></g></svg>